<svg height="496pt" viewBox="-11 0 496 496.00008" width="496pt" xmlns="http://www.w3.org/2000/svg"><path d="m465.671875 183.808594-40.523437 26.371094v-52.730469zm0 0" fill="#fedb41"/><path d="m128.398438 201.078125v-43.628906h296.75v52.730469h-296.75zm0 0" fill="#00acea"/><path d="m46.308594 43.980469v-.019531c0-19.890626 17.0625-36.011719 38.089844-36.011719h214.980468l1.269532 1.289062v77.511719c0 9.949219 8.53125 18.011719 19.042968 18.011719h74.71875l.589844.597656v52.089844h-266.601562v9.101562l-32.277344-.300781.25 34.828125h32.027344v9.101563h266.601562v205.832031c0 19.859375-17 35.949219-37.980469 36.007812h-272.621093c-21.027344 0-38.089844-16.121093-38.089844-36.007812zm0 0" fill="#00efd1"/><path d="m300.648438 9.238281 93.761718 95.523438h-74.71875c-10.511718 0-19.042968-8.0625-19.042968-18.011719zm0 0" fill="#00acea"/><path d="m357.019531 452.019531v.019531c0 19.890626-17.050781 36.011719-38.089843 36.011719h-272.507813c-21.03125 0-38.09375-16.121093-38.09375-36.011719v-372.050781c0-19.859375 17-35.949219 37.980469-36.007812v372.03125c0 19.886719 17.0625 36.007812 38.089844 36.007812zm0 0" fill="#00acea"/><path d="m128.398438 166.550781v34.527344h-32.027344l-.25-34.828125zm0 0" fill="#fedb41"/><g fill="#083863"><path d="m0 452.039062c0 24.269532 21.007812 43.960938 46.421875 43.960938h272.507813c22.773437 0 41.730468-15.832031 45.425781-36.589844 21.875-3.410156 38.644531-21.582031 38.644531-43.398437v-198.011719h22.148438c1.542968.03125 3.058593-.386719 4.367187-1.203125l40.515625-26.328125c2.269531-1.46875 3.640625-3.984375 3.640625-6.6875s-1.371094-5.21875-3.640625-6.6875l-40.515625-26.582031c-1.28125-.910157-2.796875-1.433594-4.367187-1.511719h-22.148438v-43.640625c0-2.097656-.824219-4.109375-2.292969-5.605469l-.359375-.367187c-.136718-.148438-.277344-.292969-.425781-.433594l-92.730469-94.46875c-.503906-.710937-1.117187-1.339844-1.824218-1.855469l-.289063-.265625c-1.503906-1.523437-3.558594-2.3710935-5.699219-2.363281h-214.980468c-22.765626 0-41.882813 15.824219-45.585938 36.589844-21.878906 3.410156-38.8125 21.582031-38.8125 43.398437zm136-250.039062v-37h281v37zm297-6.570312v-23.230469l17.851562 11.613281zm-124-166.617188 66.347656 68.1875h-55.65625c-2.78125.0625-5.46875-.980469-7.476562-2.90625-2.003906-1.921875-3.160156-4.566406-3.214844-7.34375zm-224.601562-12.8125h208.601562v70.75c.117188 14.621094 12.070312 26.375 26.691406 26.25h67.308594v36h-258.601562c-4.582032.179688-8.246094 3.867188-8.398438 8.449219v1.023437l-24.007812-.222656c-2.109376-.007812-4.136719.835938-5.625 2.335938-1.503907 1.523437-2.332032 3.582031-2.296876 5.722656l.273438 34.789062c.046875 4.390625 3.632812 7.921875 8.023438 7.902344h23.632812v1.179688c0 4.417968 3.980469 7.820312 8.398438 7.820312h16.910156l-.109375 12.007812c-.066407 4.574219 1.648437 8.996094 4.78125 12.328126 2.691406 2.867187 6.417969 4.546874 10.347656 4.664062h97.140625c4.417969 0 8-3.582031 8-8s-3.582031-8-8-8h-96.242188c-.015624-1-.027343-.5-.027343-.625l.109375-12.375h225.691406v198.011719c0 15.398437-13.457031 27.988281-29.980469 27.988281h-272.621093c-16.589844 0-30.398438-12.546875-30.398438-27.988281v-370.761719c0-.414062.265625-.835938.265625-1.269531.023437-.351563.023437-.703125 0-1.054688.597656-14.953125 13.921875-26.925781 30.132813-26.925781zm35.601562 177h-15.6875l-.335938-18.714844 16.023438.191406zm-104-113.011719c0-12.8125 10-23.660156 22-26.964843v362.988281c0 24.265625 20.984375 43.988281 46.398438 43.988281h263.371093c-3.699219 12-15.226562 20-28.839843 20h-272.507813c-16.59375 0-30.421875-12.515625-30.421875-27.960938zm0 0"/><path d="m96.460938 284h131.527343c4.421875 0 8-3.582031 8-8s-3.578125-8-8-8h-131.527343c-4.417969 0-8 3.582031-8 8s3.582031 8 8 8zm0 0"/><path d="m96.460938 323h228.910156c4.417968 0 8-3.582031 8-8s-3.582032-8-8-8h-228.910156c-4.417969 0-8 3.582031-8 8s3.582031 8 8 8zm0 0"/><path d="m96.460938 362h228.910156c4.417968 0 8-3.582031 8-8s-3.582032-8-8-8h-228.910156c-4.417969 0-8 3.582031-8 8s3.582031 8 8 8zm0 0"/><path d="m96.460938 401h228.910156c4.417968 0 8-3.582031 8-8s-3.582032-8-8-8h-228.910156c-4.417969 0-8 3.582031-8 8s3.582031 8 8 8zm0 0"/></g></svg>